<svg role="graphics-document" title="Auditoria Registered Gray_Auditoria Horz Gray_2023" desc="" alt="" xmlns="http://www.w3.org/2000/svg" xmlns:xlink="http://www.w3.org/1999/xlink" id="Layer_1" x="0px" y="0px" viewBox="0 0 776.99 258.02" style="enable-background:new 0 0 776.99 258.02;" xml:space="preserve" preserveAspectRatio="xMinYMid meet"> <style type="text/css"> .st0{fill-rule:evenodd;clip-rule:evenodd;fill:#323E48;} .st1{fill:#323E48;} .st2{fill-rule:evenodd;clip-rule:evenodd;fill:url(#SVGID_1_);} </style> <g> <g> <path class="st0" d="M654.82,126.66v43.99h4.96v-43.99H654.82L654.82,126.66z M703.72,119.87h-6.01l-25.9,57.25h6.58l6.74-15.02 h30.94l6.66,15.02h6.9L703.72,119.87L703.72,119.87z M713.55,156.42h-25.9l12.99-28.99L713.55,156.42L713.55,156.42z M310.12,119.87h-6.01l-25.9,57.25h6.58l6.74-15.02h30.94l6.66,15.02h6.9L310.12,119.87L310.12,119.87z M319.94,156.42h-25.9 l12.99-28.99L319.94,156.42L319.94,156.42z M381.98,126.66h-4.96v25.58c0,4.82-1.19,8.44-3.58,10.87 c-2.39,2.43-5.61,3.64-9.68,3.64c-4.23,0-7.53-1.28-9.9-3.83c-2.37-2.56-3.55-6.22-3.55-11v-25.26h-4.96v25.58 c0,3.1,0.44,5.84,1.32,8.23c0.88,2.39,2.13,4.39,3.74,6c1.61,1.61,3.54,2.83,5.78,3.64c2.24,0.82,4.72,1.23,7.45,1.23 c2.76,0,5.27-0.41,7.51-1.23c2.24-0.82,4.17-2.04,5.78-3.68c1.61-1.63,2.86-3.67,3.74-6.1c0.88-2.43,1.32-5.26,1.32-8.48V126.66 L381.98,126.66z M441.82,148.59c0-3.1-0.57-5.99-1.7-8.67c-1.13-2.68-2.73-5.01-4.81-6.97c-2.07-1.97-4.55-3.51-7.42-4.62 c-2.87-1.11-6.02-1.67-9.46-1.67h-15.27v43.99h15.27c3.44,0,6.59-0.57,9.46-1.7c2.87-1.13,5.34-2.68,7.42-4.65 c2.07-1.97,3.68-4.3,4.81-7.01C441.25,154.59,441.82,151.69,441.82,148.59L441.82,148.59z M436.67,148.72 c0,2.47-0.43,4.76-1.29,6.85c-0.86,2.09-2.07,3.93-3.64,5.5c-1.57,1.57-3.49,2.8-5.75,3.68c-2.26,0.88-4.78,1.32-7.54,1.32h-10.31 v-34.81h10.31c2.76,0,5.28,0.45,7.54,1.35c2.26,0.9,4.18,2.14,5.75,3.71c1.57,1.57,2.79,3.42,3.64,5.56 C436.24,144,436.67,146.29,436.67,148.72L436.67,148.72z M462.2,126.66v43.99h4.96v-43.99H462.2L462.2,126.66z M506.08,131.25 h14.77v-4.59h-34.5v4.59h14.77v39.4h4.96V131.25L506.08,131.25z M579.56,148.59c0-3.06-0.53-5.96-1.6-8.7 c-1.07-2.74-2.59-5.15-4.56-7.23c-1.97-2.07-4.33-3.72-7.07-4.93c-2.74-1.21-5.79-1.82-9.14-1.82c-3.35,0-6.41,0.62-9.17,1.85 c-2.77,1.24-5.13,2.9-7.1,5c-1.97,2.09-3.5,4.51-4.59,7.26c-1.09,2.74-1.63,5.64-1.63,8.7c0,3.06,0.53,5.96,1.6,8.7 c1.07,2.74,2.59,5.15,4.56,7.23c1.97,2.07,4.33,3.72,7.07,4.93c2.74,1.21,5.79,1.82,9.14,1.82c3.35,0,6.41-0.62,9.17-1.85 c2.77-1.24,5.13-2.9,7.1-5c1.97-2.09,3.5-4.51,4.59-7.26C579.02,154.55,579.56,151.65,579.56,148.59L579.56,148.59z M574.41,148.72c0,2.51-0.43,4.87-1.29,7.07c-0.86,2.2-2.04,4.12-3.55,5.75c-1.51,1.63-3.32,2.92-5.44,3.86 c-2.12,0.94-4.43,1.41-6.94,1.41c-2.51,0-4.83-0.48-6.94-1.45c-2.12-0.96-3.95-2.26-5.5-3.9c-1.55-1.63-2.75-3.56-3.61-5.78 c-0.86-2.22-1.29-4.59-1.29-7.1c0-2.51,0.43-4.87,1.29-7.07c0.86-2.2,2.04-4.12,3.55-5.75c1.51-1.63,3.32-2.92,5.44-3.86 c2.12-0.94,4.43-1.41,6.94-1.41c2.51,0,4.83,0.48,6.94,1.45c2.12,0.96,3.95,2.26,5.5,3.9c1.55,1.63,2.75,3.56,3.61,5.78 C573.98,143.84,574.41,146.2,574.41,148.72L574.41,148.72z M635.89,170.65l-13.51-17.96c1.72-0.29,3.31-0.8,4.78-1.51 s2.73-1.6,3.8-2.67c1.07-1.07,1.9-2.32,2.48-3.77c0.59-1.45,0.88-3.09,0.88-4.93c0-1.97-0.38-3.77-1.13-5.38 c-0.75-1.61-1.82-3-3.2-4.15c-1.38-1.15-3.05-2.04-5-2.67c-1.95-0.63-4.14-0.94-6.57-0.94H599.5v43.99h4.96v-17.09h12.57 l12.76,17.09H635.89L635.89,170.65z M629.35,140.01c0,1.42-0.28,2.71-0.85,3.84c-0.57,1.14-1.35,2.09-2.37,2.87 c-1.01,0.78-2.2,1.38-3.59,1.8c-1.38,0.42-2.89,0.63-4.53,0.63h-13.54v-17.91h13.61c3.57,0,6.35,0.76,8.32,2.3 C628.37,135.08,629.35,137.24,629.35,140.01z"></path> <g> <path class="st1" d="M744.05,167.92c0.77,0,1.53,0.2,2.26,0.59c0.74,0.4,1.31,0.96,1.72,1.7c0.41,0.74,0.62,1.51,0.62,2.31 c0,0.79-0.2,1.55-0.61,2.29c-0.4,0.73-0.97,1.3-1.7,1.7c-0.73,0.4-1.49,0.61-2.29,0.61c-0.8,0-1.56-0.2-2.29-0.61 c-0.73-0.4-1.3-0.97-1.7-1.7c-0.41-0.73-0.61-1.49-0.61-2.29c0-0.8,0.21-1.57,0.62-2.31c0.41-0.74,0.99-1.31,1.72-1.7 C742.52,168.12,743.28,167.92,744.05,167.92z M744.05,168.68c-0.65,0-1.28,0.17-1.89,0.5c-0.61,0.33-1.09,0.8-1.44,1.42 c-0.35,0.62-0.52,1.26-0.52,1.92c0,0.66,0.17,1.3,0.51,1.91c0.34,0.61,0.81,1.08,1.42,1.42c0.61,0.34,1.25,0.51,1.91,0.51 c0.66,0,1.3-0.17,1.91-0.51c0.61-0.34,1.08-0.81,1.42-1.42s0.51-1.24,0.51-1.91c0-0.67-0.17-1.31-0.52-1.92 c-0.34-0.62-0.82-1.09-1.44-1.42C745.32,168.85,744.69,168.68,744.05,168.68z M742.03,175.07v-4.95h1.7c0.58,0,1,0.05,1.26,0.14 c0.26,0.09,0.47,0.25,0.62,0.48c0.15,0.23,0.23,0.47,0.23,0.73c0,0.36-0.13,0.68-0.39,0.95c-0.26,0.27-0.6,0.42-1.03,0.45 c0.17,0.07,0.31,0.16,0.42,0.26c0.2,0.2,0.44,0.52,0.73,0.98l0.6,0.97h-0.98l-0.44-0.78c-0.35-0.61-0.62-1-0.84-1.15 c-0.15-0.11-0.36-0.17-0.64-0.17h-0.47v2.1H742.03z M742.83,172.28h0.97c0.46,0,0.78-0.07,0.95-0.21 c0.17-0.14,0.25-0.32,0.25-0.55c0-0.15-0.04-0.28-0.12-0.39c-0.08-0.12-0.19-0.2-0.34-0.26c-0.14-0.06-0.41-0.09-0.8-0.09h-0.91 V172.28z"></path> </g> </g> <g> <linearGradient id="SVGID_1_" gradientUnits="userSpaceOnUse" x1="128.5887" y1="80.8297" x2="128.5928" y2="235.4613"> <stop offset="0" style="stop-color:#2CACE3"></stop> <stop offset="1" style="stop-color:#A12A8E"></stop> </linearGradient> <path class="st2" d="M186.4,136.52c0.1-3.9,1.64-7.62,4.31-10.44c2.59-2.16,4.24-5.41,4.24-9.05c0-6.51-5.28-11.78-11.78-11.78 c-6.51,0-11.78,5.28-11.78,11.78c0,3.64,1.65,6.89,4.24,9.05c2.67,2.82,4.21,6.54,4.31,10.44v8.52 c-0.03,3.75-1.21,7.41-3.37,10.48l0,0c-1.05,1.39-1.68,3.12-1.68,5c0,4.57,3.71,8.28,8.28,8.28c4.57,0,8.28-3.71,8.28-8.28 c0-1.88-0.62-3.61-1.68-5l0,0c-2.16-3.07-3.33-6.73-3.37-10.48V136.52L186.4,136.52z M233.66,164.43c-3.76,0-6.8-3.04-6.8-6.8 c0-3.76,3.04-6.8,6.8-6.8c3.75,0,6.8,3.04,6.8,6.8C240.46,161.39,237.42,164.43,233.66,164.43L233.66,164.43z M147.73,102.24 l-0.07-0.06c3,2.58,4.78,6.27,4.94,10.19v6.9c-0.08,4.46-1.69,8.75-4.56,12.15l0.09-0.09c-2.07,2.13-3.34,5.04-3.34,8.24 c0,4.11,2.09,7.73,5.26,9.85l-0.11-0.08c2.47,2.01,3.94,5,4.01,8.2v21.85c-0.04,2.99-0.98,5.9-2.69,8.35 c-1.12,1.28-1.79,2.95-1.79,4.78c0,4.01,3.26,7.27,7.27,7.27c4.02,0,7.27-3.26,7.27-7.27c0-1.86-0.7-3.56-1.85-4.85 c-1.82-2.03-2.66-4.85-2.83-7.55v-22.58c0.07-3.19,1.54-6.19,4.01-8.2l-0.11,0.08c3.17-2.13,5.26-5.75,5.26-9.85 c0-2.9-1.04-5.56-2.78-7.62c-3.15-3.86-4.92-8.65-5.03-13.62v-7.44c0.1-3.2,1.64-6.19,4.2-8.13l-0.18,0.13 c3.59-2.54,5.94-6.72,5.94-11.45c0-7.73-6.27-14-14-14c-7.73,0-14,6.27-14,14C142.65,95.78,144.63,99.67,147.73,102.24 L147.73,102.24z M137.09,78.69l-0.23,0.14c5.45-3.24,9.1-9.18,9.1-15.98c0-10.26-8.32-18.58-18.58-18.58 c-10.26,0-18.58,8.32-18.58,18.58c0,5.31,2.23,10.1,5.8,13.49c1.76,1.67,3.62,2.57,5.25,4.49c2.74,3.23,3.09,6.53,3.09,10.73 c0,1.96,0.07,2.81-0.31,4.75c-0.7,3.59-2.36,6.49-5.25,9.45c-2.45,2.51-3.87,6.12-3.87,9.61c0,4.86,2.51,9.14,6.3,11.62 c2.6,1.86,4.26,4.72,4.63,7.83v16.36c-0.41,3.12-1.65,6.1-3.62,8.61l0.08-0.09c-1.41,1.55-2.27,3.62-2.27,5.88 c0,2.96,1.47,5.58,3.72,7.16c1.76,1.84,2.79,4.24,2.92,6.76v20.43c-0.23,2.91-1.16,5.74-2.72,8.22l0.07-0.08 c-0.95,1.1-1.52,2.54-1.52,4.1c0,3.47,2.81,6.29,6.29,6.29c3.47,0,6.29-2.82,6.29-6.29c0-1.55-0.56-2.97-1.5-4.07 c-1.52-2.44-2.44-5.2-2.68-8.05V179.5c0.13-2.52,1.16-4.92,2.92-6.76l-0.12,0.08c2.32-1.57,3.84-4.23,3.84-7.25 c0-2.18-0.8-4.17-2.11-5.7l0.05,0.05c-2.36-3.46-3.66-7.54-3.75-11.71v-13.4c0.38-3.11,2.03-5.96,4.63-7.83 c3.79-2.47,6.3-6.75,6.3-11.62c0-4.1-1.78-7.79-4.61-10.32c0,0-4.36-4.41-4.82-11.02C131.82,87.79,131.69,83.2,137.09,78.69 L137.09,78.69z M89.58,102.24c-3.11-2.57-5.09-6.45-5.09-10.8c0-7.73,6.27-14,14-14c7.73,0,14,6.27,14,14 c0,4.73-2.35,8.92-5.94,11.45l0.18-0.13c-2.56,1.94-4.1,4.94-4.2,8.13v7.44c0.11,4.96,1.88,9.76,5.03,13.62 c1.74,2.06,2.78,4.72,2.78,7.62c0,4.11-2.09,7.73-5.26,9.85l0.11-0.08c-2.47,2.01-3.94,5-4.01,8.2v22.58 c0.17,2.7,1.01,5.53,2.83,7.55c1.15,1.29,1.85,2.99,1.85,4.85c0,4.01-3.26,7.27-7.27,7.27c-4.02,0-7.27-3.26-7.27-7.27 c0-1.83,0.67-3.5,1.79-4.78c1.71-2.45,2.64-5.36,2.69-8.35v-21.85c-0.07-3.19-1.54-6.19-4.01-8.2l0.11,0.08 c-3.17-2.13-5.26-5.75-5.26-9.85c0-3.21,1.27-6.11,3.34-8.24l-0.09,0.09c2.87-3.4,4.49-7.69,4.56-12.15v-6.9 c-0.17-3.92-1.95-7.62-4.94-10.19L89.58,102.24L89.58,102.24z M48.3,148.55c0.07-2.52,1.06-4.92,2.78-6.74 c1.67-1.39,2.74-3.49,2.74-5.84c0-4.2-3.41-7.61-7.61-7.61c-4.2,0-7.61,3.4-7.61,7.61c0,2.35,1.06,4.45,2.74,5.84 c1.72,1.82,2.72,4.22,2.78,6.74v23.14c-0.02,2.42-0.78,4.78-2.18,6.77v0c-0.68,0.9-1.08,1.15-1.08,3.23 c0,2.08,2.39,5.35,5.35,5.35c2.95,0,5.35-3.26,5.35-5.35c0-2.08-0.4-2.33-1.08-3.23l0,0c-1.4-1.98-2.15-4.35-2.18-6.77V148.55 L48.3,148.55z M23.52,164.43c-3.75,0-6.8-3.04-6.8-6.8c0-3.76,3.04-6.8,6.8-6.8c3.76,0,6.8,3.04,6.8,6.8 C30.32,161.39,27.27,164.43,23.52,164.43L23.52,164.43z M75.29,136.52c0.1-3.9,1.64-7.62,4.31-10.44 c2.59-2.16,4.24-5.41,4.24-9.05c0-6.51-5.27-11.78-11.78-11.78c-6.51,0-11.78,5.28-11.78,11.78c0,3.64,1.65,6.89,4.24,9.05 c2.67,2.82,4.21,6.54,4.31,10.44v8.52c-0.03,3.75-1.21,7.41-3.37,10.48l0,0c-1.05,1.39-1.68,3.12-1.68,5 c0,4.57,3.71,8.28,8.28,8.28c4.57,0,8.28-3.71,8.28-8.28c0-1.88-0.63-3.61-1.68-5v0c-2.16-3.07-3.33-6.73-3.37-10.48V136.52 L75.29,136.52z M72.05,213.24c-2.42,0-4.38-1.96-4.38-4.38c0-2.42,1.96-4.38,4.38-4.38c2.42,0,4.38,1.96,4.38,4.38 C76.42,211.28,74.46,213.24,72.05,213.24L72.05,213.24z M211.38,148.55c0.07-2.52,1.06-4.92,2.78-6.74 c1.67-1.39,2.74-3.49,2.74-5.84c0-4.2-3.41-7.61-7.61-7.61c-4.2,0-7.61,3.4-7.61,7.61c0,2.35,1.06,4.45,2.74,5.84 c1.72,1.82,2.72,4.22,2.78,6.74v23.14c-0.02,2.42-0.78,4.78-2.17,6.77l0,0c-0.68,0.9-1.08,1.15-1.08,3.23 c0,2.08,2.39,5.35,5.35,5.35c2.95,0,5.35-3.26,5.35-5.35c0-2.08-0.4-2.33-1.08-3.23v0c-1.4-1.98-2.15-4.35-2.18-6.77V148.55 L211.38,148.55z M182.96,214.18c-2.42,0-4.38-1.96-4.38-4.38c0-2.42,1.96-4.38,4.38-4.38c2.42,0,4.38,1.96,4.38,4.38 C187.34,212.22,185.38,214.18,182.96,214.18z"></path> </g> </g> </svg>